<?xml version="1.0" encoding="utf-8"?>
<svg id="master-artboard" viewBox="0 0 1400 980" version="1.1" xmlns="http://www.w3.org/2000/svg" x="0px" y="0px" style="enable-background:new 0 0 1400 980;" width="1400px" height="980px"><defs><style id="ee-google-fonts">@import url(https://fonts.googleapis.com/css?family=Fjalla+One:400|Roboto:100,100italic,300,300italic,400,400italic,500,500italic,700,700italic,900,900italic);</style></defs>











































<g transform="matrix(0.9999999999999999, 0, 0, 0.9999999999999999, 1.8189894035458565e-12, 4.547473508864641e-13)">
		<path class="st13" d="M448.4,599.9" style="fill: rgb(223, 243, 251);"/>
	</g>





















































<g transform="matrix(2.1692897517229355, 0, 0, 2.1692897517229355, 513.3320041314279, 124.93651682406262)"><path d="M -31.11859703063965 76.52140808105469 L 17.012107849121094 77.05032348632812 L -29.531871795654297 137.8748321533203" style="fill: rgb(51, 51, 51); fill-opacity: 1; stroke: rgb(0, 0, 0); stroke-opacity: 1; stroke-width: 0; paint-order: fill;" transform="matrix(2.3809523582458496, 0, 0, 2.3809523582458496, -162.24333625966784, -241.60198929937127)"/><path d="M -29.002962112426758 156.3866424560547 L -28.47405242919922 208.74862670898438 L 24.416831970214844 208.74862670898438" style="fill: rgb(51, 51, 51); fill-opacity: 1; stroke: rgb(0, 0, 0); stroke-opacity: 1; stroke-width: 0; paint-order: stroke;" transform="matrix(2.3809523582458496, 0, 0, 2.3809523582458496, -168.06133362015242, -98.79659954202131)"/><path d="M 43.457550048828125 209.8064422607422 L 95.29061889648438 209.27752685546875 C 95.29061889648438 209.27752685546875 95.29061889648438 157.4444580078125 94.76171112060547 157.97337341308594" style="fill: rgb(51, 51, 51); fill-opacity: 1; stroke: rgb(0, 0, 0); stroke-opacity: 1; stroke-width: 0; paint-order: stroke;" transform="matrix(2.3809523582458496, 0, 0, 2.3809523582458496, 181.54741685987838, -104.61459690250592)"/><path d="M 95.29061889648438 142.10610961914062 L 93.17498016357422 79.16595458984375 L 43.457550048828125 79.16595458984375" style="fill: rgb(51, 51, 51); fill-opacity: 1; stroke: rgb(0, 0, 0); stroke-opacity: 1; stroke-width: 0; paint-order: stroke;" transform="matrix(2.3809523582458496, 0, 0, 2.3809523582458496, 185.77869201799172, -246.8910782556252)"/></g></svg>